<svg xmlns="http://www.w3.org/2000/svg" viewBox="0 0 180 180">
  <!-- Background - full bleed for maskable -->
  <rect width="180" height="180" fill="#F4F1EA"/>

  <!-- Earbuds icon with 10% safe zone padding (18px each side = icon in 144x144 area) -->
  <g transform="translate(18, 18)" fill="#1a5f7a">
    <!-- Left earbud -->
    <path d="M45 32c-10 0-18 8-18 18v44c0 10 8 18 18 18s18-8 18-18V50c0-10-8-18-18-18zm0 11c3.9 0 7 3.1 7 7v44c0 3.9-3.1 7-7 7s-7-3.1-7-7V50c0-3.9 3.1-7 7-7z"/>
    <circle cx="45" cy="27" r="12"/>

    <!-- Right earbud -->
    <path d="M99 32c-10 0-18 8-18 18v44c0 10 8 18 18 18s18-8 18-18V50c0-10-8-18-18-18zm0 11c3.9 0 7 3.1 7 7v44c0 3.9-3.1 7-7 7s-7-3.1-7-7V50c0-3.9 3.1-7 7-7z"/>
    <circle cx="99" cy="117" r="12"/>
  </g>
</svg>
