<svg xmlns="http://www.w3.org/2000/svg" viewBox="0 0 32 32">
  <!-- Background -->
  <rect width="32" height="32" rx="7" fill="#F4F1EA"/>

  <!-- Simplified bold earbuds icon optimized for small sizes -->
  <g fill="#1a5f7a">
    <!-- Left earbud wire -->
    <path d="M10 9c-2.2 0-4 1.8-4 4v8c0 2.2 1.8 4 4 4s4-1.8 4-4v-8c0-2.2-1.8-4-4-4zm0 2.5c.83 0 1.5.67 1.5 1.5v8c0 .83-.67 1.5-1.5 1.5s-1.5-.67-1.5-1.5v-8c0-.83.67-1.5 1.5-1.5z"/>
    <!-- Left earbud tip -->
    <circle cx="10" cy="8" r="2.5"/>

    <!-- Right earbud wire -->
    <path d="M22 9c-2.2 0-4 1.8-4 4v8c0 2.2 1.8 4 4 4s4-1.8 4-4v-8c0-2.2-1.8-4-4-4zm0 2.5c.83 0 1.5.67 1.5 1.5v8c0 .83-.67 1.5-1.5 1.5s-1.5-.67-1.5-1.5v-8c0-.83.67-1.5 1.5-1.5z"/>
    <!-- Right earbud tip -->
    <circle cx="22" cy="24" r="2.5"/>
  </g>
</svg>
